<?xml version="1.0" encoding="UTF-8"?>
<svg xmlns="http://www.w3.org/2000/svg" width="1024" height="1024" viewBox="0 0 1024 1024">
  <path d="M 663.188 842.031 L 604.812 841.969 L 560.633 841.414 L 530.648 840.367 L 514.859 838.828 L 513.266 836.797 L 510.227 832.727 L 505.742 826.617 L 499.812 818.469 L 492.438 808.281 L 486.469 800.078 L 481.906 793.859 L 478.750 789.625 L 477.000 787.375 L 471.125 779.422 L 461.125 765.766 L 447.000 746.406 L 428.750 721.344 L 414.672 702.047 L 404.766 688.516 L 399.031 680.750 L 397.469 678.750 L 395.766 676.500 L 393.922 674.000 L 391.938 671.250 L 389.812 668.250 L 386.625 663.859 L 382.375 658.078 L 377.062 650.906 L 370.688 642.344 L 363.438 632.531 L 355.312 621.469 L 346.312 609.156 L 336.438 595.594 L 325.578 580.766 L 313.734 564.672 L 300.906 547.312 L 287.094 528.688 L 274.203 511.250 L 262.234 495.000 L 251.188 479.938 L 241.062 466.062 L 233.031 455.094 L 227.094 447.031 L 223.250 441.875 L 221.500 439.625 L 218.562 435.688 L 214.438 430.062 L 209.125 422.750 L 202.625 413.750 L 197.633 406.883 L 194.148 402.148 L 192.172 399.547 L 191.703 399.078 L 191.281 398.797 L 190.906 398.703 L 190.578 398.797 L 190.297 399.078 L 190.102 426.883 L 189.992 482.211 L 189.969 565.062 L 190.031 675.438 L 190.008 758.289 L 189.898 813.617 L 189.703 841.422 L 189.422 841.703 L 181.555 841.914 L 166.102 842.055 L 143.062 842.125 L 112.438 842.125 L 89.398 842.039 L 73.945 841.867 L 66.078 841.609 L 65.797 841.266 L 65.602 799.867 L 65.492 717.414 L 65.469 593.906 L 65.531 429.344 L 65.664 305.867 L 65.867 223.477 L 66.141 182.172 L 66.484 181.953 L 74.289 181.789 L 89.555 181.680 L 112.281 181.625 L 142.469 181.625 L 165.211 181.711 L 180.508 181.883 L 188.359 182.141 L 188.766 182.484 L 194.695 190.789 L 206.148 207.055 L 223.125 231.281 L 245.625 263.469 L 262.969 288.250 L 275.156 305.625 L 282.188 315.594 L 284.062 318.156 L 286.094 321.000 L 288.281 324.125 L 290.625 327.531 L 293.125 331.219 L 295.547 334.734 L 297.891 338.078 L 300.156 341.250 L 302.344 344.250 L 305.297 348.406 L 309.016 353.719 L 313.500 360.188 L 318.750 367.812 L 323.344 374.438 L 327.281 380.062 L 330.562 384.688 L 333.188 388.312 L 335.438 391.469 L 337.312 394.156 L 338.812 396.375 L 339.938 398.125 L 343.422 403.188 L 349.266 411.562 L 357.469 423.250 L 368.031 438.250 L 377.281 451.438 L 385.219 462.812 L 391.844 472.375 L 397.156 480.125 L 401.828 486.891 L 405.859 492.672 L 409.250 497.469 L 412.000 501.281 L 414.312 504.531 L 416.188 507.219 L 417.625 509.344 L 418.625 510.906 L 423.125 517.469 L 431.125 529.031 L 442.625 545.594 L 457.625 567.156 L 470.328 585.469 L 480.734 600.531 L 488.844 612.344 L 494.656 620.906 L 500.594 629.578 L 506.656 638.359 L 512.844 647.250 L 519.156 656.250 L 525.359 665.156 L 531.453 673.969 L 537.438 682.688 L 543.312 691.312 L 548.250 698.516 L 552.250 704.297 L 555.312 708.656 L 557.438 711.594 L 560.000 715.234 L 563.000 719.578 L 566.438 724.625 L 570.312 730.375 L 573.406 734.953 L 575.719 738.359 L 577.250 740.594 L 578.000 741.656 L 578.711 742.570 L 579.383 743.336 L 580.016 743.953 L 580.609 744.422 L 590.508 744.758 L 609.711 744.961 L 638.219 745.031 L 676.031 744.969 L 705.328 744.859 L 726.109 744.703 L 738.375 744.500 L 742.125 744.250 L 745.859 743.938 L 749.578 743.562 L 753.281 743.125 L 756.969 742.625 L 760.375 742.109 L 763.500 741.578 L 766.344 741.031 L 768.906 740.469 L 771.594 739.812 L 774.406 739.062 L 777.344 738.219 L 780.406 737.281 L 783.422 736.266 L 786.391 735.172 L 789.312 734.000 L 792.188 732.750 L 794.906 731.516 L 797.469 730.297 L 799.875 729.094 L 802.125 727.906 L 804.188 726.766 L 806.062 725.672 L 807.750 724.625 L 809.250 723.625 L 810.766 722.562 L 812.297 721.438 L 813.844 720.250 L 815.406 719.000 L 817.102 717.523 L 818.930 715.820 L 820.891 713.891 L 822.984 711.734 L 824.992 709.508 L 826.914 707.211 L 828.750 704.844 L 830.500 702.406 L 832.109 700.016 L 833.578 697.672 L 834.906 695.375 L 836.094 693.125 L 837.156 691.000 L 838.094 689.000 L 838.906 687.125 L 839.594 685.375 L 840.297 683.422 L 841.016 681.266 L 841.750 678.906 L 842.500 676.344 L 843.188 673.734 L 843.812 671.078 L 844.375 668.375 L 844.875 665.625 L 845.312 662.875 L 845.688 660.125 L 846.000 657.375 L 846.250 654.625 L 846.438 651.984 L 846.562 649.453 L 846.625 647.031 L 846.625 644.719 L 846.578 642.359 L 846.484 639.953 L 846.344 637.500 L 846.156 635.000 L 845.891 632.422 L 845.547 629.766 L 845.125 627.031 L 844.625 624.219 L 844.047 621.484 L 843.391 618.828 L 842.656 616.250 L 841.844 613.750 L 840.969 611.297 L 840.031 608.891 L 839.031 606.531 L 837.969 604.219 L 836.969 602.156 L 836.031 600.344 L 835.156 598.781 L 834.344 597.469 L 833.375 596.031 L 832.250 594.469 L 830.969 592.781 L 829.531 590.969 L 827.945 589.133 L 826.211 587.273 L 824.328 585.391 L 822.297 583.484 L 820.305 581.711 L 818.352 580.070 L 816.438 578.562 L 814.562 577.188 L 812.469 575.766 L 810.156 574.297 L 807.625 572.781 L 804.875 571.219 L 802.375 569.859 L 800.125 568.703 L 798.125 567.750 L 796.375 567.000 L 794.688 566.312 L 793.062 565.688 L 791.500 565.125 L 790.000 564.625 L 788.805 564.164 L 787.914 563.742 L 787.328 563.359 L 787.047 563.016 L 786.977 561.898 L 787.117 560.008 L 787.469 557.344 L 788.031 553.906 L 788.484 550.781 L 788.828 547.969 L 789.062 545.469 L 789.188 543.281 L 789.281 541.000 L 789.344 538.625 L 789.375 536.156 L 789.375 533.594 L 789.281 530.672 L 789.094 527.391 L 788.812 523.750 L 788.438 519.750 L 788.031 516.125 L 787.594 512.875 L 787.125 510.000 L 786.625 507.500 L 786.109 505.141 L 785.578 502.922 L 785.031 500.844 L 784.469 498.906 L 784.062 497.391 L 783.812 496.297 L 783.719 495.625 L 783.781 495.375 L 783.867 495.148 L 783.977 494.945 L 784.109 494.766 L 784.266 494.609 L 784.820 494.227 L 785.773 493.617 L 787.125 492.781 L 788.875 491.719 L 790.812 490.438 L 792.938 488.938 L 795.250 487.219 L 797.750 485.281 L 800.148 483.289 L 802.445 481.242 L 804.641 479.141 L 806.734 476.984 L 808.648 474.914 L 810.383 472.930 L 811.938 471.031 L 813.312 469.219 L 814.531 467.562 L 815.594 466.062 L 816.500 464.719 L 817.250 463.531 L 818.094 462.094 L 819.031 460.406 L 820.062 458.469 L 821.188 456.281 L 822.203 454.234 L 823.109 452.328 L 823.906 450.562 L 824.594 448.938 L 825.312 447.094 L 826.062 445.031 L 826.844 442.750 L 827.656 440.250 L 828.375 437.938 L 829.000 435.812 L 829.531 433.875 L 829.969 432.125 L 830.422 430.172 L 830.891 428.016 L 831.375 425.656 L 831.875 423.094 L 832.328 420.562 L 832.734 418.062 L 833.094 415.594 L 833.406 413.156 L 833.688 410.641 L 833.938 408.047 L 834.156 405.375 L 834.344 402.625 L 834.484 399.766 L 834.578 396.797 L 834.625 393.719 L 834.625 390.531 L 834.578 387.531 L 834.484 384.719 L 834.344 382.094 L 834.156 379.656 L 833.938 377.312 L 833.688 375.062 L 833.406 372.906 L 833.094 370.844 L 832.672 368.516 L 832.141 365.922 L 831.500 363.062 L 830.750 359.938 L 830.078 357.250 L 829.484 355.000 L 828.969 353.188 L 828.531 351.812 L 827.953 350.188 L 827.234 348.312 L 826.375 346.188 L 825.375 343.812 L 824.188 341.250 L 822.812 338.500 L 821.250 335.562 L 819.500 332.438 L 817.688 329.453 L 815.812 326.609 L 813.875 323.906 L 811.875 321.344 L 809.867 318.914 L 807.852 316.617 L 805.828 314.453 L 803.797 312.422 L 801.508 310.305 L 798.961 308.102 L 796.156 305.812 L 793.094 303.438 L 790.250 301.328 L 787.625 299.484 L 785.219 297.906 L 783.031 296.594 L 780.922 295.375 L 778.891 294.250 L 776.938 293.219 L 775.062 292.281 L 773.109 291.344 L 771.078 290.406 L 768.969 289.469 L 766.781 288.531 L 764.391 287.578 L 761.797 286.609 L 759.000 285.625 L 756.000 284.625 L 753.172 283.734 L 750.516 282.953 L 748.031 282.281 L 745.719 281.719 L 743.297 281.172 L 740.766 280.641 L 738.125 280.125 L 735.375 279.625 L 732.766 279.188 L 730.297 278.812 L 727.969 278.500 L 725.781 278.250 L 716.891 278.047 L 701.297 277.891 L 679.000 277.781 L 650.000 277.719 L 628.180 277.742 L 613.539 277.852 L 606.078 278.047 L 605.797 278.328 L 605.430 280.211 L 604.977 283.695 L 604.438 288.781 L 603.812 295.469 L 603.078 302.234 L 602.234 309.078 L 601.281 316.000 L 600.219 323.000 L 599.250 328.906 L 598.375 333.719 L 597.594 337.438 L 596.906 340.062 L 596.156 342.609 L 595.344 345.078 L 594.469 347.469 L 593.531 349.781 L 592.656 351.781 L 591.844 353.469 L 591.094 354.844 L 590.406 355.906 L 589.375 357.297 L 588.000 359.016 L 586.281 361.062 L 584.219 363.438 L 579.953 368.125 L 573.484 375.125 L 564.812 384.438 L 553.938 396.062 L 545.062 405.625 L 538.188 413.125 L 533.312 418.562 L 530.438 421.938 L 527.625 425.328 L 524.875 428.734 L 522.188 432.156 L 519.562 435.594 L 517.062 438.984 L 514.688 442.328 L 512.438 445.625 L 510.312 448.875 L 508.391 451.938 L 506.672 454.812 L 505.156 457.500 L 503.844 460.000 L 502.609 462.484 L 501.453 464.953 L 500.375 467.406 L 499.375 469.844 L 498.438 472.250 L 497.562 474.625 L 496.750 476.969 L 496.000 479.281 L 495.375 481.344 L 494.875 483.156 L 494.500 484.719 L 494.250 486.031 L 494.000 487.156 L 493.750 488.094 L 493.500 488.844 L 493.250 489.406 L 492.914 489.945 L 492.492 490.461 L 491.984 490.953 L 491.391 491.422 L 490.820 491.805 L 490.273 492.102 L 489.750 492.312 L 489.250 492.438 L 488.719 492.531 L 488.156 492.594 L 487.562 492.625 L 486.938 492.625 L 486.281 492.578 L 485.594 492.484 L 484.875 492.344 L 484.125 492.156 L 483.344 491.906 L 482.531 491.594 L 481.688 491.219 L 480.812 490.781 L 480.023 490.320 L 479.320 489.836 L 478.703 489.328 L 478.172 488.797 L 477.742 488.336 L 477.414 487.945 L 477.188 487.625 L 477.062 487.375 L 476.969 468.172 L 476.906 430.016 L 476.875 372.906 L 476.875 296.844 L 476.945 239.727 L 477.086 201.555 L 477.297 182.328 L 477.578 182.047 L 493.195 181.836 L 524.148 181.695 L 570.438 181.625 L 632.062 181.625 L 679.688 181.703 L 713.312 181.859 L 732.938 182.094 L 738.562 182.406 L 743.844 182.766 L 748.781 183.172 L 753.375 183.625 L 757.625 184.125 L 762.172 184.750 L 767.016 185.500 L 772.156 186.375 L 777.594 187.375 L 782.703 188.391 L 787.484 189.422 L 791.938 190.469 L 796.062 191.531 L 800.141 192.641 L 804.172 193.797 L 808.156 195.000 L 812.094 196.250 L 816.172 197.625 L 820.391 199.125 L 824.750 200.750 L 829.250 202.500 L 833.516 204.250 L 837.547 206.000 L 841.344 207.750 L 844.906 209.500 L 848.438 211.297 L 851.938 213.141 L 855.406 215.031 L 858.844 216.969 L 862.438 219.141 L 866.188 221.547 L 870.094 224.188 L 874.156 227.062 L 878.031 229.938 L 881.719 232.812 L 885.219 235.688 L 888.531 238.562 L 891.477 241.195 L 894.055 243.586 L 896.266 245.734 L 898.109 247.641 L 899.945 249.586 L 901.773 251.570 L 903.594 253.594 L 905.406 255.656 L 907.094 257.625 L 908.656 259.500 L 910.094 261.281 L 911.406 262.969 L 912.703 264.703 L 913.984 266.484 L 915.250 268.312 L 916.500 270.188 L 917.766 272.141 L 919.047 274.172 L 920.344 276.281 L 921.656 278.469 L 922.969 280.750 L 924.281 283.125 L 925.594 285.594 L 926.906 288.156 L 928.328 291.141 L 929.859 294.547 L 931.500 298.375 L 933.250 302.625 L 934.797 306.547 L 936.141 310.141 L 937.281 313.406 L 938.219 316.344 L 939.062 319.078 L 939.812 321.609 L 940.469 323.938 L 941.031 326.062 L 941.688 328.906 L 942.438 332.469 L 943.281 336.750 L 944.219 341.750 L 945.000 346.203 L 945.625 350.109 L 946.094 353.469 L 946.406 356.281 L 946.688 359.125 L 946.938 362.000 L 947.156 364.906 L 947.344 367.844 L 947.469 371.422 L 947.531 375.641 L 947.531 380.500 L 947.469 386.000 L 947.375 390.734 L 947.250 394.703 L 947.094 397.906 L 946.906 400.344 L 946.656 402.984 L 946.344 405.828 L 945.969 408.875 L 945.531 412.125 L 945.000 415.500 L 944.375 419.000 L 943.656 422.625 L 942.844 426.375 L 942.062 429.766 L 941.312 432.797 L 940.594 435.469 L 939.906 437.781 L 939.188 440.062 L 938.438 442.312 L 937.656 444.531 L 936.844 446.719 L 936.062 448.750 L 935.312 450.625 L 934.594 452.344 L 933.906 453.906 L 933.109 455.609 L 932.203 457.453 L 931.188 459.438 L 930.062 461.562 L 928.734 463.891 L 927.203 466.422 L 925.469 469.156 L 923.531 472.094 L 921.781 474.688 L 920.219 476.938 L 918.844 478.844 L 917.656 480.406 L 916.422 481.969 L 915.141 483.531 L 913.812 485.094 L 912.438 486.656 L 910.867 488.367 L 909.102 490.227 L 907.141 492.234 L 904.984 494.391 L 903.039 496.289 L 901.305 497.930 L 899.781 499.312 L 898.469 500.438 L 896.984 501.656 L 895.328 502.969 L 893.500 504.375 L 891.500 505.875 L 889.359 507.406 L 887.078 508.969 L 884.656 510.562 L 882.094 512.188 L 880.133 513.477 L 878.773 514.430 L 878.016 515.047 L 877.859 515.328 L 877.781 515.594 L 877.781 515.844 L 877.859 516.078 L 878.016 516.297 L 878.945 516.930 L 880.648 517.977 L 883.125 519.438 L 886.375 521.312 L 889.547 523.219 L 892.641 525.156 L 895.656 527.125 L 898.594 529.125 L 901.406 531.094 L 904.094 533.031 L 906.656 534.938 L 909.094 536.812 L 911.469 538.703 L 913.781 540.609 L 916.031 542.531 L 918.219 544.469 L 920.367 546.430 L 922.477 548.414 L 924.547 550.422 L 926.578 552.453 L 928.695 554.711 L 930.898 557.195 L 933.188 559.906 L 935.562 562.844 L 937.688 565.562 L 939.562 568.062 L 941.188 570.344 L 942.562 572.406 L 944.031 574.797 L 945.594 577.516 L 947.250 580.562 L 949.000 583.938 L 950.562 587.078 L 951.938 589.984 L 953.125 592.656 L 954.125 595.094 L 955.125 597.719 L 956.125 600.531 L 957.125 603.531 L 958.125 606.719 L 959.078 610.047 L 959.984 613.516 L 960.844 617.125 L 961.656 620.875 L 962.375 624.578 L 963.000 628.234 L 963.531 631.844 L 963.969 635.406 L 964.328 638.578 L 964.609 641.359 L 964.812 643.750 L 964.938 645.750 L 965.016 648.719 L 965.047 652.656 L 965.031 657.562 L 964.969 663.438 L 964.844 668.625 L 964.656 673.125 L 964.406 676.938 L 964.094 680.062 L 963.688 683.375 L 963.188 686.875 L 962.594 690.562 L 961.906 694.438 L 961.141 698.266 L 960.297 702.047 L 959.375 705.781 L 958.375 709.469 L 957.297 713.141 L 956.141 716.797 L 954.906 720.438 L 953.594 724.062 L 952.172 727.688 L 950.641 731.312 L 949.000 734.938 L 947.250 738.562 L 945.422 742.125 L 943.516 745.625 L 941.531 749.062 L 939.469 752.438 L 937.578 755.438 L 935.859 758.062 L 934.312 760.312 L 932.938 762.188 L 931.531 764.047 L 930.094 765.891 L 928.625 767.719 L 927.125 769.531 L 925.148 771.758 L 922.695 774.398 L 919.766 777.453 L 916.359 780.922 L 913.273 783.977 L 910.508 786.617 L 908.062 788.844 L 905.938 790.656 L 903.531 792.609 L 900.844 794.703 L 897.875 796.938 L 894.625 799.312 L 891.281 801.641 L 887.844 803.922 L 884.312 806.156 L 880.688 808.344 L 876.844 810.547 L 872.781 812.766 L 868.500 815.000 L 864.000 817.250 L 859.484 819.375 L 854.953 821.375 L 850.406 823.250 L 845.844 825.000 L 841.562 826.578 L 837.562 827.984 L 833.844 829.219 L 830.406 830.281 L 826.547 831.375 L 822.266 832.500 L 817.562 833.656 L 812.438 834.844 L 807.438 835.922 L 802.562 836.891 L 797.812 837.750 L 793.188 838.500 L 788.453 839.188 L 783.609 839.812 L 778.656 840.375 L 773.594 840.875 L 768.844 841.281 L 764.406 841.594 L 760.281 841.812 L 756.469 841.938 L 753.609 842.031 L 751.703 842.094 L 750.750 842.125 L 750.750 842.125 L 736.156 842.109 L 706.969 842.078 Z M 644.375 663.875 L 641.625 663.875 L 638.750 663.797 L 635.750 663.641 L 632.625 663.406 L 629.375 663.094 L 626.109 662.688 L 622.828 662.188 L 619.531 661.594 L 616.219 660.906 L 613.109 660.188 L 610.203 659.438 L 607.500 658.656 L 605.000 657.844 L 602.297 656.859 L 599.391 655.703 L 596.281 654.375 L 592.969 652.875 L 589.875 651.391 L 587.000 649.922 L 584.344 648.469 L 581.906 647.031 L 579.562 645.578 L 577.312 644.109 L 575.156 642.625 L 573.094 641.125 L 571.000 639.516 L 568.875 637.797 L 566.719 635.969 L 564.531 634.031 L 562.273 631.945 L 559.945 629.711 L 557.547 627.328 L 555.078 624.797 L 552.617 622.133 L 550.164 619.336 L 547.719 616.406 L 545.281 613.344 L 542.969 610.312 L 540.781 607.312 L 538.719 604.344 L 536.781 601.406 L 534.828 598.234 L 532.859 594.828 L 530.875 591.188 L 528.875 587.312 L 527.156 583.859 L 525.719 580.828 L 524.562 578.219 L 523.688 576.031 L 522.812 573.656 L 521.938 571.094 L 521.062 568.344 L 520.188 565.406 L 519.406 562.562 L 518.719 559.812 L 518.125 557.156 L 517.625 554.594 L 517.172 551.828 L 516.766 548.859 L 516.406 545.688 L 516.094 542.312 L 515.859 538.781 L 515.703 535.094 L 515.625 531.250 L 515.625 527.250 L 515.703 523.438 L 515.859 519.812 L 516.094 516.375 L 516.406 513.125 L 516.781 510.031 L 517.219 507.094 L 517.719 504.312 L 518.281 501.688 L 518.875 499.141 L 519.500 496.672 L 520.156 494.281 L 520.844 491.969 L 521.609 489.609 L 522.453 487.203 L 523.375 484.750 L 524.375 482.250 L 525.547 479.594 L 526.891 476.781 L 528.406 473.812 L 530.094 470.688 L 531.750 467.766 L 533.375 465.047 L 534.969 462.531 L 536.531 460.219 L 538.172 457.922 L 539.891 455.641 L 541.688 453.375 L 543.562 451.125 L 545.586 448.805 L 547.758 446.414 L 550.078 443.953 L 552.547 441.422 L 554.836 439.133 L 556.945 437.086 L 558.875 435.281 L 560.625 433.719 L 562.062 432.453 L 563.188 431.484 L 564.000 430.812 L 564.500 430.438 L 564.914 430.195 L 565.242 430.086 L 565.484 430.109 L 565.641 430.266 L 565.586 430.680 L 565.320 431.352 L 564.844 432.281 L 564.156 433.469 L 563.453 434.766 L 562.734 436.172 L 562.000 437.688 L 561.250 439.312 L 560.438 441.219 L 559.562 443.406 L 558.625 445.875 L 557.625 448.625 L 556.688 451.469 L 555.812 454.406 L 555.000 457.438 L 554.250 460.562 L 553.609 463.484 L 553.078 466.203 L 552.656 468.719 L 552.344 471.031 L 552.094 473.484 L 551.906 476.078 L 551.781 478.812 L 551.719 481.688 L 551.766 484.750 L 551.922 488.000 L 552.188 491.438 L 552.562 495.062 L 553.078 498.641 L 553.734 502.172 L 554.531 505.656 L 555.469 509.094 L 556.281 511.938 L 556.969 514.188 L 557.531 515.844 L 557.969 516.906 L 558.352 517.742 L 558.680 518.352 L 558.953 518.734 L 559.172 518.891 L 559.406 518.938 L 559.656 518.875 L 559.922 518.703 L 560.203 518.422 L 560.492 517.727 L 560.789 516.617 L 561.094 515.094 L 561.406 513.156 L 561.844 511.062 L 562.406 508.812 L 563.094 506.406 L 563.906 503.844 L 564.828 501.250 L 565.859 498.625 L 567.000 495.969 L 568.250 493.281 L 569.438 490.844 L 570.562 488.656 L 571.625 486.719 L 572.625 485.031 L 573.844 483.094 L 575.281 480.906 L 576.938 478.469 L 578.812 475.781 L 580.609 473.266 L 582.328 470.922 L 583.969 468.750 L 585.531 466.750 L 588.734 462.750 L 593.578 456.750 L 600.062 448.750 L 608.188 438.750 L 614.562 430.875 L 619.188 425.125 L 622.062 421.500 L 623.188 420.000 L 624.578 418.016 L 626.234 415.547 L 628.156 412.594 L 630.344 409.156 L 632.203 406.125 L 633.734 403.500 L 634.938 401.281 L 635.812 399.469 L 636.688 397.484 L 637.562 395.328 L 638.438 393.000 L 639.312 390.500 L 640.109 387.938 L 640.828 385.312 L 641.469 382.625 L 642.031 379.875 L 642.500 377.359 L 642.875 375.078 L 643.156 373.031 L 643.344 371.219 L 643.484 369.125 L 643.578 366.750 L 643.625 364.094 L 643.625 361.156 L 643.516 358.062 L 643.297 354.812 L 642.969 351.406 L 642.531 347.844 L 642.000 344.328 L 641.375 340.859 L 640.656 337.438 L 639.844 334.062 L 639.047 330.953 L 638.266 328.109 L 637.500 325.531 L 636.750 323.219 L 636.078 321.234 L 635.484 319.578 L 634.969 318.250 L 634.531 317.250 L 634.242 316.445 L 634.102 315.836 L 634.109 315.422 L 634.266 315.203 L 634.586 315.117 L 635.070 315.164 L 635.719 315.344 L 636.531 315.656 L 637.859 316.297 L 639.703 317.266 L 642.062 318.562 L 644.938 320.188 L 647.516 321.688 L 649.797 323.062 L 651.781 324.312 L 653.469 325.438 L 655.203 326.641 L 656.984 327.922 L 658.812 329.281 L 660.688 330.719 L 662.500 332.156 L 664.250 333.594 L 665.938 335.031 L 667.562 336.469 L 669.352 338.148 L 671.305 340.070 L 673.422 342.234 L 675.703 344.641 L 677.820 346.961 L 679.773 349.195 L 681.562 351.344 L 683.188 353.406 L 684.609 355.250 L 685.828 356.875 L 686.844 358.281 L 687.656 359.469 L 688.500 360.766 L 689.375 362.172 L 690.281 363.688 L 691.219 365.312 L 692.203 367.094 L 693.234 369.031 L 694.312 371.125 L 695.438 373.375 L 696.578 375.797 L 697.734 378.391 L 698.906 381.156 L 700.094 384.094 L 701.109 386.688 L 701.953 388.938 L 702.625 390.844 L 703.125 392.406 L 703.672 394.266 L 704.266 396.422 L 704.906 398.875 L 705.594 401.625 L 706.188 404.109 L 706.688 406.328 L 707.094 408.281 L 707.406 409.969 L 707.703 411.719 L 707.984 413.531 L 708.250 415.406 L 708.500 417.344 L 708.734 419.500 L 708.953 421.875 L 709.156 424.469 L 709.344 427.281 L 709.484 429.734 L 709.578 431.828 L 709.625 433.562 L 709.625 434.938 L 709.578 436.641 L 709.484 438.672 L 709.344 441.031 L 709.156 443.719 L 708.938 446.297 L 708.688 448.766 L 708.406 451.125 L 708.094 453.375 L 707.688 455.828 L 707.188 458.484 L 706.594 461.344 L 705.906 464.406 L 705.125 467.453 L 704.250 470.484 L 703.281 473.500 L 702.219 476.500 L 701.141 479.328 L 700.047 481.984 L 698.938 484.469 L 697.812 486.781 L 696.578 489.188 L 695.234 491.688 L 693.781 494.281 L 692.219 496.969 L 689.578 501.109 L 685.859 506.703 L 681.062 513.750 L 675.188 522.250 L 670.203 529.625 L 666.109 535.875 L 662.906 541.000 L 660.594 545.000 L 658.609 548.531 L 656.953 551.594 L 655.625 554.188 L 654.625 556.312 L 653.672 558.469 L 652.766 560.656 L 651.906 562.875 L 651.094 565.125 L 650.359 567.297 L 649.703 569.391 L 649.125 571.406 L 648.625 573.344 L 648.188 575.156 L 647.812 576.844 L 647.500 578.406 L 647.250 579.844 L 647.031 581.234 L 646.844 582.578 L 646.688 583.875 L 646.562 585.125 L 646.484 587.016 L 646.453 589.547 L 646.469 592.719 L 646.531 596.531 L 646.672 599.984 L 646.891 603.078 L 647.188 605.812 L 647.562 608.188 L 648.016 610.547 L 648.547 612.891 L 649.156 615.219 L 649.844 617.531 L 650.609 619.844 L 651.453 622.156 L 652.375 624.469 L 653.375 626.781 L 654.453 629.109 L 655.609 631.453 L 656.844 633.812 L 658.156 636.188 L 659.516 638.500 L 660.922 640.750 L 662.375 642.938 L 663.875 645.062 L 665.531 647.281 L 667.344 649.594 L 669.312 652.000 L 671.438 654.500 L 673.031 656.422 L 674.094 657.766 L 674.625 658.531 L 674.625 658.719 L 674.539 658.914 L 674.367 659.117 L 674.109 659.328 L 673.766 659.547 L 672.977 659.836 L 671.742 660.195 L 670.062 660.625 L 667.938 661.125 L 665.328 661.625 L 662.234 662.125 L 658.656 662.625 L 654.594 663.125 L 651.547 663.500 L 649.516 663.750 L 648.500 663.875 L 648.500 663.875 L 647.812 663.875 L 646.438 663.875 Z M 701.750 646.500 L 701.250 646.250 L 700.547 645.781 L 699.641 645.094 L 698.531 644.188 L 697.219 643.062 L 695.727 641.648 L 694.055 639.945 L 692.203 637.953 L 690.172 635.672 L 688.336 633.508 L 686.695 631.461 L 685.250 629.531 L 684.000 627.719 L 682.797 625.828 L 681.641 623.859 L 680.531 621.812 L 679.469 619.688 L 678.500 617.609 L 677.625 615.578 L 676.844 613.594 L 676.156 611.656 L 675.516 609.516 L 674.922 607.172 L 674.375 604.625 L 673.875 601.875 L 673.500 599.203 L 673.250 596.609 L 673.125 594.094 L 673.125 591.656 L 673.172 589.469 L 673.266 587.531 L 673.406 585.844 L 673.594 584.406 L 673.812 583.000 L 674.062 581.625 L 674.344 580.281 L 674.656 578.969 L 675.016 577.609 L 675.422 576.203 L 675.875 574.750 L 676.375 573.250 L 676.875 571.828 L 677.375 570.484 L 677.875 569.219 L 678.375 568.031 L 679.000 566.656 L 679.750 565.094 L 680.625 563.344 L 681.625 561.406 L 683.156 558.719 L 685.219 555.281 L 687.812 551.094 L 690.938 546.156 L 694.344 540.953 L 698.031 535.484 L 702.000 529.750 L 706.250 523.750 L 710.078 518.141 L 713.484 512.922 L 716.469 508.094 L 719.031 503.656 L 721.328 499.375 L 723.359 495.250 L 725.125 491.281 L 726.625 487.469 L 727.922 483.891 L 729.016 480.547 L 729.906 477.438 L 730.594 474.562 L 731.156 471.969 L 731.594 469.656 L 731.906 467.625 L 732.094 465.875 L 732.305 464.523 L 732.539 463.570 L 732.797 463.016 L 733.078 462.859 L 733.422 462.875 L 733.828 463.062 L 734.297 463.422 L 734.828 463.953 L 735.555 464.773 L 736.477 465.883 L 737.594 467.281 L 738.906 468.969 L 740.312 470.906 L 741.812 473.094 L 743.406 475.531 L 745.094 478.219 L 746.672 480.906 L 748.141 483.594 L 749.500 486.281 L 750.750 488.969 L 751.938 491.750 L 753.062 494.625 L 754.125 497.594 L 755.125 500.656 L 756.062 503.906 L 756.938 507.344 L 757.750 510.969 L 758.500 514.781 L 759.109 518.172 L 759.578 521.141 L 759.906 523.688 L 760.094 525.812 L 760.234 528.266 L 760.328 531.047 L 760.375 534.156 L 760.375 537.594 L 760.281 541.016 L 760.094 544.422 L 759.812 547.812 L 759.438 551.188 L 759.016 554.359 L 758.547 557.328 L 758.031 560.094 L 757.469 562.656 L 756.797 565.344 L 756.016 568.156 L 755.125 571.094 L 754.125 574.156 L 753.141 577.000 L 752.172 579.625 L 751.219 582.031 L 750.281 584.219 L 749.297 586.422 L 748.266 588.641 L 747.188 590.875 L 746.062 593.125 L 744.859 595.438 L 743.578 597.812 L 742.219 600.250 L 740.781 602.750 L 739.297 605.219 L 737.766 607.656 L 736.188 610.062 L 734.562 612.438 L 732.719 615.000 L 730.656 617.750 L 728.375 620.688 L 725.875 623.812 L 723.320 626.852 L 720.711 629.805 L 718.047 632.672 L 715.328 635.453 L 712.883 637.898 L 710.711 640.008 L 708.812 641.781 L 707.188 643.219 L 705.828 644.391 L 704.734 645.297 L 703.906 645.938 L 703.344 646.312 L 702.922 646.594 L 702.641 646.781 L 702.500 646.875 L 702.500 646.875 L 702.375 646.812 L 702.125 646.688 Z" fill="#7511bd" fill-rule="evenodd" stroke="none" shape-rendering="geometricPrecision"/>
</svg>
