<?xml version="1.0" encoding="UTF-8"?>
<svg xmlns="http://www.w3.org/2000/svg" width="448" height="533" viewBox="0 0 448 533">
  <path d="M 225.719 490.531 L 221.531 490.469 L 218.375 490.406 L 216.250 490.344 L 215.156 490.281 L 215.094 490.219 L 214.625 490.156 L 213.750 490.094 L 212.469 490.031 L 210.781 489.969 L 209.500 489.906 L 208.625 489.844 L 208.156 489.781 L 208.094 489.719 L 207.906 489.672 L 207.594 489.641 L 207.156 489.625 L 206.594 489.625 L 206.156 489.609 L 205.844 489.578 L 205.656 489.531 L 205.594 489.469 L 205.312 489.406 L 204.812 489.344 L 204.094 489.281 L 203.156 489.219 L 202.438 489.156 L 201.938 489.094 L 201.656 489.031 L 201.594 488.969 L 201.422 488.922 L 201.141 488.891 L 200.750 488.875 L 200.250 488.875 L 199.859 488.859 L 199.578 488.828 L 199.406 488.781 L 199.344 488.719 L 199.125 488.656 L 198.750 488.594 L 198.219 488.531 L 197.531 488.469 L 197.000 488.406 L 196.625 488.344 L 196.406 488.281 L 196.344 488.219 L 196.016 488.141 L 195.422 488.047 L 194.562 487.938 L 193.438 487.812 L 192.516 487.688 L 191.797 487.562 L 191.281 487.438 L 190.969 487.312 L 190.578 487.203 L 190.109 487.109 L 189.562 487.031 L 188.938 486.969 L 188.172 486.844 L 187.266 486.656 L 186.219 486.406 L 185.031 486.094 L 184.078 485.859 L 183.359 485.703 L 182.875 485.625 L 182.625 485.625 L 182.375 485.594 L 182.125 485.531 L 181.875 485.438 L 181.625 485.312 L 181.328 485.203 L 180.984 485.109 L 180.594 485.031 L 180.156 484.969 L 179.656 484.859 L 179.094 484.703 L 178.469 484.500 L 177.781 484.250 L 177.203 484.062 L 176.734 483.938 L 176.375 483.875 L 176.125 483.875 L 175.781 483.812 L 175.344 483.688 L 174.812 483.500 L 174.188 483.250 L 173.609 483.047 L 173.078 482.891 L 172.594 482.781 L 172.156 482.719 L 171.438 482.547 L 170.438 482.266 L 169.156 481.875 L 167.594 481.375 L 166.172 480.891 L 164.891 480.422 L 163.750 479.969 L 162.750 479.531 L 161.797 479.141 L 160.891 478.797 L 160.031 478.500 L 159.219 478.250 L 158.531 478.016 L 157.969 477.797 L 157.531 477.594 L 157.219 477.406 L 156.734 477.172 L 156.078 476.891 L 155.250 476.562 L 154.250 476.188 L 153.328 475.812 L 152.484 475.438 L 151.719 475.062 L 151.031 474.688 L 150.484 474.406 L 150.078 474.219 L 149.812 474.125 L 149.688 474.125 L 148.781 473.719 L 147.094 472.906 L 144.625 471.688 L 141.375 470.062 L 138.828 468.766 L 136.984 467.797 L 135.844 467.156 L 135.406 466.844 L 135.000 466.578 L 134.625 466.359 L 134.281 466.188 L 133.969 466.062 L 132.812 465.359 L 130.812 464.078 L 127.969 462.219 L 124.281 459.781 L 121.219 457.734 L 118.781 456.078 L 116.969 454.812 L 115.781 453.938 L 114.625 453.062 L 113.500 452.188 L 112.406 451.312 L 111.344 450.438 L 110.422 449.656 L 109.641 448.969 L 109.000 448.375 L 108.500 447.875 L 108.031 447.438 L 107.594 447.062 L 107.188 446.750 L 106.812 446.500 L 106.266 446.078 L 105.547 445.484 L 104.656 444.719 L 103.594 443.781 L 102.211 442.492 L 100.508 440.852 L 98.484 438.859 L 96.141 436.516 L 93.945 434.258 L 91.898 432.086 L 90.000 430.000 L 88.250 428.000 L 86.328 425.688 L 84.234 423.062 L 81.969 420.125 L 79.531 416.875 L 77.406 413.984 L 75.594 411.453 L 74.094 409.281 L 72.906 407.469 L 71.750 405.656 L 70.625 403.844 L 69.531 402.031 L 68.469 400.219 L 67.391 398.297 L 66.297 396.266 L 65.188 394.125 L 64.062 391.875 L 63.219 390.156 L 62.656 388.969 L 62.375 388.312 L 62.375 388.188 L 62.172 387.672 L 61.766 386.766 L 61.156 385.469 L 60.344 383.781 L 59.656 382.281 L 59.094 380.969 L 58.656 379.844 L 58.344 378.906 L 58.047 378.078 L 57.766 377.359 L 57.500 376.750 L 57.250 376.250 L 57.047 375.797 L 56.891 375.391 L 56.781 375.031 L 56.719 374.719 L 56.641 374.438 L 56.547 374.188 L 56.438 373.969 L 56.312 373.781 L 56.203 373.547 L 56.109 373.266 L 56.031 372.938 L 55.969 372.562 L 55.891 372.234 L 55.797 371.953 L 55.688 371.719 L 55.562 371.531 L 55.328 370.953 L 54.984 369.984 L 54.531 368.625 L 53.969 366.875 L 53.531 365.453 L 53.219 364.359 L 53.031 363.594 L 52.969 363.156 L 52.875 362.719 L 52.750 362.281 L 52.594 361.844 L 52.406 361.406 L 52.266 361.031 L 52.172 360.719 L 52.125 360.469 L 52.125 360.281 L 52.047 359.875 L 51.891 359.250 L 51.656 358.406 L 51.344 357.344 L 51.094 356.406 L 50.906 355.594 L 50.781 354.906 L 50.719 354.344 L 50.625 353.781 L 50.500 353.219 L 50.344 352.656 L 50.156 352.094 L 50.000 351.500 L 49.875 350.875 L 49.781 350.219 L 49.719 349.531 L 49.641 348.938 L 49.547 348.438 L 49.438 348.031 L 49.312 347.719 L 49.219 347.391 L 49.156 347.047 L 49.125 346.688 L 49.125 346.312 L 49.109 346.016 L 49.078 345.797 L 49.031 345.656 L 48.969 345.594 L 48.906 345.359 L 48.844 344.953 L 48.781 344.375 L 48.719 343.625 L 48.641 342.953 L 48.547 342.359 L 48.438 341.844 L 48.312 341.406 L 48.219 340.969 L 48.156 340.531 L 48.125 340.094 L 48.125 339.656 L 48.109 339.312 L 48.078 339.062 L 48.031 338.906 L 47.969 338.844 L 47.906 338.500 L 47.844 337.875 L 47.781 336.969 L 47.719 335.781 L 47.656 334.875 L 47.594 334.250 L 47.531 333.906 L 47.469 333.844 L 47.422 333.672 L 47.391 333.391 L 47.375 333.000 L 47.375 332.500 L 47.359 332.109 L 47.328 331.828 L 47.281 331.656 L 47.219 331.594 L 47.172 331.328 L 47.141 330.859 L 47.125 330.188 L 47.125 329.312 L 47.109 328.641 L 47.078 328.172 L 47.031 327.906 L 46.969 327.844 L 46.922 326.578 L 46.891 324.109 L 46.875 320.438 L 46.875 315.562 L 46.891 311.891 L 46.922 309.422 L 46.969 308.156 L 47.031 308.094 L 47.078 307.812 L 47.109 307.312 L 47.125 306.594 L 47.125 305.656 L 47.141 304.938 L 47.172 304.438 L 47.219 304.156 L 47.281 304.094 L 47.328 303.875 L 47.359 303.500 L 47.375 302.969 L 47.375 302.281 L 47.391 301.750 L 47.422 301.375 L 47.469 301.156 L 47.531 301.094 L 47.578 300.922 L 47.609 300.641 L 47.625 300.250 L 47.625 299.750 L 47.641 299.359 L 47.672 299.078 L 47.719 298.906 L 47.781 298.844 L 47.828 298.641 L 47.859 298.297 L 47.875 297.812 L 47.875 297.188 L 47.891 296.703 L 47.922 296.359 L 47.969 296.156 L 48.031 296.094 L 48.078 295.953 L 48.109 295.734 L 48.125 295.438 L 48.125 295.062 L 48.141 294.766 L 48.172 294.547 L 48.219 294.406 L 48.281 294.344 L 48.328 294.219 L 48.359 294.031 L 48.375 293.781 L 48.375 293.469 L 48.406 293.125 L 48.469 292.750 L 48.562 292.344 L 48.688 291.906 L 48.781 291.469 L 48.844 291.031 L 48.875 290.594 L 48.875 290.156 L 48.891 289.812 L 48.922 289.562 L 48.969 289.406 L 49.031 289.344 L 49.078 289.219 L 49.109 289.031 L 49.125 288.781 L 49.125 288.469 L 49.141 288.219 L 49.172 288.031 L 49.219 287.906 L 49.281 287.844 L 49.422 287.266 L 49.641 286.172 L 49.938 284.562 L 50.312 282.438 L 50.641 280.719 L 50.922 279.406 L 51.156 278.500 L 51.344 278.000 L 51.562 277.281 L 51.812 276.344 L 52.094 275.188 L 52.406 273.812 L 52.688 272.672 L 52.938 271.766 L 53.156 271.094 L 53.344 270.656 L 53.484 270.281 L 53.578 269.969 L 53.625 269.719 L 53.625 269.531 L 53.688 269.234 L 53.812 268.828 L 54.000 268.312 L 54.250 267.688 L 54.438 267.172 L 54.562 266.766 L 54.625 266.469 L 54.625 266.281 L 54.672 266.000 L 54.766 265.625 L 54.906 265.156 L 55.094 264.594 L 55.266 264.125 L 55.422 263.750 L 55.562 263.469 L 55.688 263.281 L 55.781 263.094 L 55.844 262.906 L 55.875 262.719 L 55.875 262.531 L 56.047 261.984 L 56.391 261.078 L 56.906 259.812 L 57.594 258.188 L 58.125 256.891 L 58.500 255.922 L 58.719 255.281 L 58.781 254.969 L 59.031 254.312 L 59.469 253.312 L 60.094 251.969 L 60.906 250.281 L 61.516 248.984 L 61.922 248.078 L 62.125 247.562 L 62.125 247.438 L 62.547 246.531 L 63.391 244.844 L 64.656 242.375 L 66.344 239.125 L 68.031 236.031 L 69.719 233.094 L 71.406 230.312 L 73.094 227.688 L 74.406 225.672 L 75.344 224.266 L 75.906 223.469 L 76.094 223.281 L 76.562 222.656 L 77.312 221.594 L 78.344 220.094 L 79.656 218.156 L 81.031 216.219 L 82.469 214.281 L 83.969 212.344 L 85.531 210.406 L 87.141 208.453 L 88.797 206.484 L 90.500 204.500 L 92.250 202.500 L 94.227 200.336 L 96.430 198.008 L 98.859 195.516 L 101.516 192.859 L 104.195 190.258 L 106.898 187.711 L 109.625 185.219 L 112.375 182.781 L 115.109 180.422 L 117.828 178.141 L 120.531 175.938 L 123.219 173.812 L 125.281 172.188 L 126.719 171.062 L 127.531 170.438 L 127.719 170.312 L 127.898 170.258 L 128.070 170.273 L 128.234 170.359 L 128.391 170.516 L 128.461 170.742 L 128.445 171.039 L 128.344 171.406 L 128.156 171.844 L 127.891 172.359 L 127.547 172.953 L 127.125 173.625 L 126.625 174.375 L 126.172 175.109 L 125.766 175.828 L 125.406 176.531 L 125.094 177.219 L 124.797 177.812 L 124.516 178.312 L 124.250 178.719 L 124.000 179.031 L 123.688 179.531 L 123.312 180.219 L 122.875 181.094 L 122.375 182.156 L 121.969 182.984 L 121.656 183.578 L 121.438 183.938 L 121.312 184.062 L 121.203 184.219 L 121.109 184.406 L 121.031 184.625 L 120.969 184.875 L 120.875 185.125 L 120.750 185.375 L 120.594 185.625 L 120.406 185.875 L 120.094 186.422 L 119.656 187.266 L 119.094 188.406 L 118.406 189.844 L 117.859 191.031 L 117.453 191.969 L 117.188 192.656 L 117.062 193.094 L 116.906 193.531 L 116.719 193.969 L 116.500 194.406 L 116.250 194.844 L 116.047 195.250 L 115.891 195.625 L 115.781 195.969 L 115.719 196.281 L 115.625 196.594 L 115.500 196.906 L 115.344 197.219 L 115.156 197.531 L 115.016 197.812 L 114.922 198.062 L 114.875 198.281 L 114.875 198.469 L 114.828 198.703 L 114.734 198.984 L 114.594 199.312 L 114.406 199.688 L 114.188 200.203 L 113.938 200.859 L 113.656 201.656 L 113.344 202.594 L 113.109 203.344 L 112.953 203.906 L 112.875 204.281 L 112.875 204.469 L 112.828 204.719 L 112.734 205.031 L 112.594 205.406 L 112.406 205.844 L 112.266 206.219 L 112.172 206.531 L 112.125 206.781 L 112.125 206.969 L 112.094 207.172 L 112.031 207.391 L 111.938 207.625 L 111.812 207.875 L 111.719 208.109 L 111.656 208.328 L 111.625 208.531 L 111.625 208.719 L 111.594 208.922 L 111.531 209.141 L 111.438 209.375 L 111.312 209.625 L 111.203 209.922 L 111.109 210.266 L 111.031 210.656 L 110.969 211.094 L 110.859 211.625 L 110.703 212.250 L 110.500 212.969 L 110.250 213.781 L 110.047 214.531 L 109.891 215.219 L 109.781 215.844 L 109.719 216.406 L 109.625 216.969 L 109.500 217.531 L 109.344 218.094 L 109.156 218.656 L 109.016 219.172 L 108.922 219.641 L 108.875 220.062 L 108.875 220.438 L 108.844 220.812 L 108.781 221.188 L 108.688 221.562 L 108.562 221.938 L 108.438 222.531 L 108.312 223.344 L 108.188 224.375 L 108.062 225.625 L 107.953 226.578 L 107.859 227.234 L 107.781 227.594 L 107.719 227.656 L 107.672 227.828 L 107.641 228.109 L 107.625 228.500 L 107.625 229.000 L 107.609 229.391 L 107.578 229.672 L 107.531 229.844 L 107.469 229.906 L 107.422 230.125 L 107.391 230.500 L 107.375 231.031 L 107.375 231.719 L 107.359 232.250 L 107.328 232.625 L 107.281 232.844 L 107.219 232.906 L 107.172 233.812 L 107.141 235.562 L 107.125 238.156 L 107.125 241.594 L 107.141 244.188 L 107.172 245.938 L 107.219 246.844 L 107.281 246.906 L 107.344 247.219 L 107.406 247.781 L 107.469 248.594 L 107.531 249.656 L 107.594 250.469 L 107.656 251.031 L 107.719 251.344 L 107.781 251.406 L 107.844 251.672 L 107.906 252.141 L 107.969 252.812 L 108.031 253.688 L 108.094 254.359 L 108.156 254.828 L 108.219 255.094 L 108.281 255.156 L 108.344 255.359 L 108.406 255.703 L 108.469 256.188 L 108.531 256.812 L 108.594 257.297 L 108.656 257.641 L 108.719 257.844 L 108.781 257.906 L 108.828 258.047 L 108.859 258.266 L 108.875 258.562 L 108.875 258.938 L 108.938 259.453 L 109.062 260.109 L 109.250 260.906 L 109.500 261.844 L 109.688 262.625 L 109.812 263.250 L 109.875 263.719 L 109.875 264.031 L 109.938 264.453 L 110.062 264.984 L 110.250 265.625 L 110.500 266.375 L 110.703 267.062 L 110.859 267.688 L 110.969 268.250 L 111.031 268.750 L 111.125 269.234 L 111.250 269.703 L 111.406 270.156 L 111.594 270.594 L 111.734 270.984 L 111.828 271.328 L 111.875 271.625 L 111.875 271.875 L 112.000 272.438 L 112.250 273.312 L 112.625 274.500 L 113.125 276.000 L 113.609 277.375 L 114.078 278.625 L 114.531 279.750 L 114.969 280.750 L 115.312 281.578 L 115.562 282.234 L 115.719 282.719 L 115.781 283.031 L 115.859 283.328 L 115.953 283.609 L 116.062 283.875 L 116.188 284.125 L 116.336 284.352 L 116.508 284.555 L 116.703 284.734 L 116.922 284.891 L 117.141 284.969 L 117.359 284.969 L 117.578 284.891 L 117.797 284.734 L 117.992 284.539 L 118.164 284.305 L 118.312 284.031 L 118.438 283.719 L 118.547 283.312 L 118.641 282.812 L 118.719 282.219 L 118.781 281.531 L 118.844 281.000 L 118.906 280.625 L 118.969 280.406 L 119.031 280.344 L 119.203 279.750 L 119.484 278.625 L 119.875 276.969 L 120.375 274.781 L 120.781 273.094 L 121.094 271.906 L 121.312 271.219 L 121.438 271.031 L 121.531 270.844 L 121.594 270.656 L 121.625 270.469 L 121.625 270.281 L 121.719 269.859 L 121.906 269.203 L 122.188 268.312 L 122.562 267.188 L 122.938 266.156 L 123.312 265.219 L 123.688 264.375 L 124.062 263.625 L 124.422 262.844 L 124.766 262.031 L 125.094 261.188 L 125.406 260.312 L 125.844 259.234 L 126.406 257.953 L 127.094 256.469 L 127.906 254.781 L 128.547 253.484 L 129.016 252.578 L 129.312 252.062 L 129.438 251.938 L 129.625 251.656 L 129.875 251.219 L 130.188 250.625 L 130.562 249.875 L 131.234 248.719 L 132.203 247.156 L 133.469 245.188 L 135.031 242.812 L 136.609 240.500 L 138.203 238.250 L 139.812 236.062 L 141.438 233.938 L 143.188 231.719 L 145.062 229.406 L 147.062 227.000 L 149.188 224.500 L 151.953 221.344 L 155.359 217.531 L 159.406 213.062 L 164.094 207.938 L 168.109 203.578 L 171.453 199.984 L 174.125 197.156 L 176.125 195.094 L 178.531 192.531 L 181.344 189.469 L 184.562 185.906 L 188.188 181.844 L 191.609 177.906 L 194.828 174.094 L 197.844 170.406 L 200.656 166.844 L 203.094 163.672 L 205.156 160.891 L 206.844 158.500 L 208.156 156.500 L 209.172 154.922 L 209.891 153.766 L 210.312 153.031 L 210.438 152.719 L 210.703 152.219 L 211.109 151.531 L 211.656 150.656 L 212.344 149.594 L 213.156 148.188 L 214.094 146.438 L 215.156 144.344 L 216.344 141.906 L 217.234 140.047 L 217.828 138.766 L 218.125 138.062 L 218.125 137.938 L 218.281 137.484 L 218.594 136.703 L 219.062 135.594 L 219.688 134.156 L 220.297 132.594 L 220.891 130.906 L 221.469 129.094 L 222.031 127.156 L 222.453 125.641 L 222.734 124.547 L 222.875 123.875 L 222.875 123.625 L 222.938 123.203 L 223.062 122.609 L 223.250 121.844 L 223.500 120.906 L 223.688 120.125 L 223.812 119.500 L 223.875 119.031 L 223.875 118.719 L 223.906 118.391 L 223.969 118.047 L 224.062 117.688 L 224.188 117.312 L 224.281 116.953 L 224.344 116.609 L 224.375 116.281 L 224.375 115.969 L 224.391 115.719 L 224.422 115.531 L 224.469 115.406 L 224.531 115.344 L 224.578 115.203 L 224.609 114.984 L 224.625 114.688 L 224.625 114.312 L 224.641 114.016 L 224.672 113.797 L 224.719 113.656 L 224.781 113.594 L 224.844 113.219 L 224.906 112.531 L 224.969 111.531 L 225.031 110.219 L 225.094 109.219 L 225.156 108.531 L 225.219 108.156 L 225.281 108.094 L 225.328 107.781 L 225.359 107.219 L 225.375 106.406 L 225.375 105.344 L 225.391 104.531 L 225.422 103.969 L 225.469 103.656 L 225.531 103.594 L 225.578 103.250 L 225.609 102.625 L 225.625 101.719 L 225.625 100.531 L 225.609 99.625 L 225.578 99.000 L 225.531 98.656 L 225.469 98.594 L 225.391 97.969 L 225.297 96.781 L 225.188 95.031 L 225.062 92.719 L 224.953 90.969 L 224.859 89.781 L 224.781 89.156 L 224.719 89.094 L 224.672 88.953 L 224.641 88.734 L 224.625 88.438 L 224.625 88.062 L 224.594 87.688 L 224.531 87.312 L 224.438 86.938 L 224.312 86.562 L 224.203 86.078 L 224.109 85.484 L 224.031 84.781 L 223.969 83.969 L 223.891 83.281 L 223.797 82.719 L 223.688 82.281 L 223.562 81.969 L 223.438 81.516 L 223.312 80.922 L 223.188 80.188 L 223.062 79.312 L 222.906 78.453 L 222.719 77.609 L 222.500 76.781 L 222.250 75.969 L 222.062 75.297 L 221.938 74.766 L 221.875 74.375 L 221.875 74.125 L 221.812 73.781 L 221.688 73.344 L 221.500 72.812 L 221.250 72.188 L 221.062 71.672 L 220.938 71.266 L 220.875 70.969 L 220.875 70.781 L 220.719 70.188 L 220.406 69.188 L 219.938 67.781 L 219.312 65.969 L 218.812 64.562 L 218.438 63.562 L 218.188 62.969 L 218.062 62.781 L 217.906 62.453 L 217.719 61.984 L 217.500 61.375 L 217.250 60.625 L 217.000 59.953 L 216.750 59.359 L 216.500 58.844 L 216.250 58.406 L 216.062 58.047 L 215.938 57.766 L 215.875 57.562 L 215.875 57.438 L 215.750 57.109 L 215.500 56.578 L 215.125 55.844 L 214.625 54.906 L 214.250 54.172 L 214.000 53.641 L 213.875 53.312 L 213.875 53.188 L 213.672 52.703 L 213.266 51.859 L 212.656 50.656 L 211.844 49.094 L 211.203 47.891 L 210.734 47.047 L 210.438 46.562 L 210.312 46.438 L 210.125 46.141 L 209.875 45.672 L 209.562 45.031 L 209.188 44.219 L 208.734 43.344 L 208.203 42.406 L 207.594 41.406 L 206.906 40.344 L 206.375 39.500 L 206.000 38.875 L 205.781 38.469 L 205.719 38.281 L 205.711 38.102 L 205.758 37.930 L 205.859 37.766 L 206.016 37.609 L 206.414 37.586 L 207.055 37.695 L 207.938 37.938 L 209.062 38.312 L 210.047 38.672 L 210.891 39.016 L 211.594 39.344 L 212.156 39.656 L 212.719 39.938 L 213.281 40.188 L 213.844 40.406 L 214.406 40.594 L 215.531 41.078 L 217.219 41.859 L 219.469 42.938 L 222.281 44.312 L 224.562 45.453 L 226.312 46.359 L 227.531 47.031 L 228.219 47.469 L 228.875 47.859 L 229.500 48.203 L 230.094 48.500 L 230.656 48.750 L 232.000 49.500 L 234.125 50.750 L 237.031 52.500 L 240.719 54.750 L 244.281 57.000 L 247.719 59.250 L 251.031 61.500 L 254.219 63.750 L 256.922 65.672 L 259.141 67.266 L 260.875 68.531 L 262.125 69.469 L 263.531 70.562 L 265.094 71.812 L 266.812 73.219 L 268.688 74.781 L 270.781 76.594 L 273.094 78.656 L 275.625 80.969 L 278.375 83.531 L 280.961 86.008 L 283.383 88.398 L 285.641 90.703 L 287.734 92.922 L 289.883 95.273 L 292.086 97.758 L 294.344 100.375 L 296.656 103.125 L 298.703 105.625 L 300.484 107.875 L 302.000 109.875 L 303.250 111.625 L 304.609 113.594 L 306.078 115.781 L 307.656 118.188 L 309.344 120.812 L 311.031 123.578 L 312.719 126.484 L 314.406 129.531 L 316.094 132.719 L 317.359 135.141 L 318.203 136.797 L 318.625 137.688 L 318.625 137.812 L 318.703 138.047 L 318.859 138.391 L 319.094 138.844 L 319.406 139.406 L 319.719 140.047 L 320.031 140.766 L 320.344 141.562 L 320.656 142.438 L 320.984 143.281 L 321.328 144.094 L 321.688 144.875 L 322.062 145.625 L 322.375 146.312 L 322.625 146.938 L 322.812 147.500 L 322.938 148.000 L 323.078 148.453 L 323.234 148.859 L 323.406 149.219 L 323.594 149.531 L 323.750 149.844 L 323.875 150.156 L 323.969 150.469 L 324.031 150.781 L 324.188 151.281 L 324.438 151.969 L 324.781 152.844 L 325.219 153.906 L 325.547 154.750 L 325.766 155.375 L 325.875 155.781 L 325.875 155.969 L 326.000 156.469 L 326.250 157.281 L 326.625 158.406 L 327.125 159.844 L 327.500 160.969 L 327.750 161.781 L 327.875 162.281 L 327.875 162.469 L 327.922 162.719 L 328.016 163.031 L 328.156 163.406 L 328.344 163.844 L 328.516 164.344 L 328.672 164.906 L 328.812 165.531 L 328.938 166.219 L 329.078 166.875 L 329.234 167.500 L 329.406 168.094 L 329.594 168.656 L 329.734 169.141 L 329.828 169.547 L 329.875 169.875 L 329.875 170.125 L 329.953 170.609 L 330.109 171.328 L 330.344 172.281 L 330.656 173.469 L 330.891 174.453 L 331.047 175.234 L 331.125 175.812 L 331.125 176.188 L 331.172 176.625 L 331.266 177.125 L 331.406 177.688 L 331.594 178.312 L 331.750 178.953 L 331.875 179.609 L 331.969 180.281 L 332.031 180.969 L 332.109 181.578 L 332.203 182.109 L 332.312 182.562 L 332.438 182.938 L 332.562 183.594 L 332.688 184.531 L 332.812 185.750 L 332.938 187.250 L 333.047 188.391 L 333.141 189.172 L 333.219 189.594 L 333.281 189.656 L 333.328 189.844 L 333.359 190.156 L 333.375 190.594 L 333.375 191.156 L 333.391 191.594 L 333.422 191.906 L 333.469 192.094 L 333.531 192.156 L 333.578 192.359 L 333.609 192.703 L 333.625 193.188 L 333.625 193.812 L 333.641 194.297 L 333.672 194.641 L 333.719 194.844 L 333.781 194.906 L 333.828 196.031 L 333.859 198.219 L 333.875 201.469 L 333.875 205.781 L 333.859 209.031 L 333.828 211.219 L 333.781 212.344 L 333.719 212.406 L 333.672 212.625 L 333.641 213.000 L 333.625 213.531 L 333.625 214.219 L 333.609 214.750 L 333.578 215.125 L 333.531 215.344 L 333.469 215.406 L 333.406 215.719 L 333.344 216.281 L 333.281 217.094 L 333.219 218.156 L 333.156 218.969 L 333.094 219.531 L 333.031 219.844 L 332.969 219.906 L 332.922 220.062 L 332.891 220.312 L 332.875 220.656 L 332.875 221.094 L 332.859 221.438 L 332.828 221.688 L 332.781 221.844 L 332.719 221.906 L 332.641 222.234 L 332.547 222.828 L 332.438 223.688 L 332.312 224.812 L 332.156 225.891 L 331.969 226.922 L 331.750 227.906 L 331.500 228.844 L 331.297 229.703 L 331.141 230.484 L 331.031 231.188 L 330.969 231.812 L 330.906 232.297 L 330.844 232.641 L 330.781 232.844 L 330.719 232.906 L 330.609 233.250 L 330.453 233.875 L 330.250 234.781 L 330.000 235.969 L 329.703 237.172 L 329.359 238.391 L 328.969 239.625 L 328.531 240.875 L 328.203 241.859 L 327.984 242.578 L 327.875 243.031 L 327.875 243.219 L 327.844 243.406 L 327.781 243.594 L 327.688 243.781 L 327.562 243.969 L 327.422 244.281 L 327.266 244.719 L 327.094 245.281 L 326.906 245.969 L 326.734 246.531 L 326.578 246.969 L 326.438 247.281 L 326.312 247.469 L 326.203 247.688 L 326.109 247.938 L 326.031 248.219 L 325.969 248.531 L 325.797 249.047 L 325.516 249.766 L 325.125 250.688 L 324.625 251.812 L 324.250 252.688 L 324.000 253.312 L 323.875 253.688 L 323.875 253.812 L 323.734 254.172 L 323.453 254.766 L 323.031 255.594 L 322.469 256.656 L 322.047 257.484 L 321.766 258.078 L 321.625 258.438 L 321.625 258.562 L 321.312 259.234 L 320.688 260.453 L 319.750 262.219 L 318.500 264.531 L 317.469 266.391 L 316.656 267.797 L 316.062 268.750 L 315.688 269.250 L 315.312 269.797 L 314.938 270.391 L 314.562 271.031 L 314.188 271.719 L 313.562 272.734 L 312.688 274.078 L 311.562 275.750 L 310.188 277.750 L 308.906 279.578 L 307.719 281.234 L 306.625 282.719 L 305.625 284.031 L 304.781 285.172 L 304.094 286.141 L 303.562 286.938 L 303.188 287.562 L 302.688 288.281 L 302.062 289.094 L 301.312 290.000 L 300.438 291.000 L 299.734 291.828 L 299.203 292.484 L 298.844 292.969 L 298.656 293.281 L 297.922 294.250 L 296.641 295.875 L 294.812 298.156 L 292.438 301.094 L 290.312 303.688 L 288.438 305.938 L 286.812 307.844 L 285.438 309.406 L 283.781 311.344 L 281.844 313.656 L 279.625 316.344 L 277.125 319.406 L 274.688 322.438 L 272.312 325.438 L 270.000 328.406 L 267.750 331.344 L 265.609 334.203 L 263.578 336.984 L 261.656 339.688 L 259.844 342.312 L 258.250 344.672 L 256.875 346.766 L 255.719 348.594 L 254.781 350.156 L 254.031 351.438 L 253.469 352.438 L 253.094 353.156 L 252.906 353.594 L 252.688 354.031 L 252.438 354.469 L 252.156 354.906 L 251.844 355.344 L 251.250 356.406 L 250.375 358.094 L 249.219 360.406 L 247.781 363.344 L 246.703 365.578 L 245.984 367.109 L 245.625 367.938 L 245.625 368.062 L 245.531 368.344 L 245.344 368.781 L 245.062 369.375 L 244.688 370.125 L 244.375 370.812 L 244.125 371.438 L 243.938 372.000 L 243.812 372.500 L 243.672 372.969 L 243.516 373.406 L 243.344 373.812 L 243.156 374.188 L 243.016 374.516 L 242.922 374.797 L 242.875 375.031 L 242.875 375.219 L 242.812 375.516 L 242.688 375.922 L 242.500 376.438 L 242.250 377.062 L 242.062 377.578 L 241.938 377.984 L 241.875 378.281 L 241.875 378.469 L 241.828 378.734 L 241.734 379.078 L 241.594 379.500 L 241.406 380.000 L 241.250 380.500 L 241.125 381.000 L 241.031 381.500 L 240.969 382.000 L 240.891 382.438 L 240.797 382.812 L 240.688 383.125 L 240.562 383.375 L 240.469 383.625 L 240.406 383.875 L 240.375 384.125 L 240.375 384.375 L 240.344 384.641 L 240.281 384.922 L 240.188 385.219 L 240.062 385.531 L 239.953 385.922 L 239.859 386.391 L 239.781 386.938 L 239.719 387.562 L 239.641 388.125 L 239.547 388.625 L 239.438 389.062 L 239.312 389.438 L 239.219 389.812 L 239.156 390.188 L 239.125 390.562 L 239.125 390.938 L 239.109 391.234 L 239.078 391.453 L 239.031 391.594 L 238.969 391.656 L 238.922 391.797 L 238.891 392.016 L 238.875 392.312 L 238.875 392.688 L 238.859 392.984 L 238.828 393.203 L 238.781 393.344 L 238.719 393.406 L 238.656 393.797 L 238.594 394.516 L 238.531 395.562 L 238.469 396.938 L 238.406 397.984 L 238.344 398.703 L 238.281 399.094 L 238.219 399.156 L 238.172 399.969 L 238.141 401.531 L 238.125 403.844 L 238.125 406.906 L 238.141 409.219 L 238.172 410.781 L 238.219 411.594 L 238.281 411.656 L 238.328 411.844 L 238.359 412.156 L 238.375 412.594 L 238.375 413.156 L 238.391 413.594 L 238.422 413.906 L 238.469 414.094 L 238.531 414.156 L 238.578 414.375 L 238.609 414.750 L 238.625 415.281 L 238.625 415.969 L 238.641 416.500 L 238.672 416.875 L 238.719 417.094 L 238.781 417.156 L 238.844 417.422 L 238.906 417.891 L 238.969 418.562 L 239.031 419.438 L 239.109 420.188 L 239.203 420.812 L 239.312 421.312 L 239.438 421.688 L 239.562 422.203 L 239.688 422.859 L 239.812 423.656 L 239.938 424.594 L 240.062 425.359 L 240.188 425.953 L 240.312 426.375 L 240.438 426.625 L 240.547 426.938 L 240.641 427.312 L 240.719 427.750 L 240.781 428.250 L 240.875 428.750 L 241.000 429.250 L 241.156 429.750 L 241.344 430.250 L 241.500 430.734 L 241.625 431.203 L 241.719 431.656 L 241.781 432.094 L 242.031 432.984 L 242.469 434.328 L 243.094 436.125 L 243.906 438.375 L 244.688 440.422 L 245.438 442.266 L 246.156 443.906 L 246.844 445.344 L 247.359 446.453 L 247.703 447.234 L 247.875 447.688 L 247.875 447.812 L 248.062 448.266 L 248.438 449.047 L 249.000 450.156 L 249.750 451.594 L 250.375 452.750 L 250.875 453.625 L 251.250 454.219 L 251.500 454.531 L 251.766 454.922 L 252.047 455.391 L 252.344 455.938 L 252.656 456.562 L 253.234 457.578 L 254.078 458.984 L 255.188 460.781 L 256.562 462.969 L 258.047 465.203 L 259.641 467.484 L 261.344 469.812 L 263.156 472.188 L 264.922 474.438 L 266.641 476.562 L 268.312 478.562 L 269.938 480.438 L 271.172 481.906 L 272.016 482.969 L 272.469 483.625 L 272.531 483.875 L 272.508 484.117 L 272.398 484.352 L 272.203 484.578 L 271.922 484.797 L 271.664 484.961 L 271.430 485.070 L 271.219 485.125 L 271.031 485.125 L 270.750 485.172 L 270.375 485.266 L 269.906 485.406 L 269.344 485.594 L 268.844 485.734 L 268.406 485.828 L 268.031 485.875 L 267.719 485.875 L 267.203 485.953 L 266.484 486.109 L 265.562 486.344 L 264.438 486.656 L 263.203 486.953 L 261.859 487.234 L 260.406 487.500 L 258.844 487.750 L 257.656 487.953 L 256.844 488.109 L 256.406 488.219 L 256.344 488.281 L 256.203 488.328 L 255.984 488.359 L 255.688 488.375 L 255.312 488.375 L 254.922 488.406 L 254.516 488.469 L 254.094 488.562 L 253.656 488.688 L 253.188 488.781 L 252.688 488.844 L 252.156 488.875 L 251.594 488.875 L 251.156 488.891 L 250.844 488.922 L 250.656 488.969 L 250.594 489.031 L 250.344 489.094 L 249.906 489.156 L 249.281 489.219 L 248.469 489.281 L 247.844 489.344 L 247.406 489.406 L 247.156 489.469 L 247.094 489.531 L 246.922 489.578 L 246.641 489.609 L 246.250 489.625 L 245.750 489.625 L 245.359 489.641 L 245.078 489.672 L 244.906 489.719 L 244.844 489.781 L 244.391 489.844 L 243.547 489.906 L 242.312 489.969 L 240.688 490.031 L 239.453 490.094 L 238.609 490.156 L 238.156 490.219 L 238.094 490.281 L 237.688 490.328 L 236.938 490.359 L 235.844 490.375 L 234.406 490.375 L 233.312 490.391 L 232.562 490.422 L 232.156 490.469 L 232.094 490.531 L 232.047 490.578 L 232.016 490.609 L 232.000 490.625 L 232.000 490.625 L 230.953 490.609 L 228.859 490.578 Z M 300.531 472.625 L 300.219 472.625 L 299.727 472.367 L 299.055 471.852 L 298.203 471.078 L 297.172 470.047 L 296.164 469.008 L 295.180 467.961 L 294.219 466.906 L 293.281 465.844 L 292.031 464.344 L 290.469 462.406 L 288.594 460.031 L 286.406 457.219 L 284.422 454.594 L 282.641 452.156 L 281.062 449.906 L 279.688 447.844 L 278.453 445.906 L 277.359 444.094 L 276.406 442.406 L 275.594 440.844 L 274.953 439.641 L 274.484 438.797 L 274.188 438.312 L 274.062 438.188 L 273.969 438.062 L 273.906 437.938 L 273.875 437.812 L 273.875 437.688 L 273.734 437.312 L 273.453 436.688 L 273.031 435.812 L 272.469 434.688 L 271.844 433.234 L 271.156 431.453 L 270.406 429.344 L 269.594 426.906 L 268.969 424.969 L 268.531 423.531 L 268.281 422.594 L 268.219 422.156 L 268.109 421.625 L 267.953 421.000 L 267.750 420.281 L 267.500 419.469 L 267.266 418.469 L 267.047 417.281 L 266.844 415.906 L 266.656 414.344 L 266.500 413.156 L 266.375 412.344 L 266.281 411.906 L 266.219 411.844 L 266.172 411.641 L 266.141 411.297 L 266.125 410.812 L 266.125 410.188 L 266.109 409.703 L 266.078 409.359 L 266.031 409.156 L 265.969 409.094 L 265.922 408.562 L 265.891 407.562 L 265.875 406.094 L 265.875 404.156 L 265.891 402.688 L 265.922 401.688 L 265.969 401.156 L 266.031 401.094 L 266.078 400.875 L 266.109 400.500 L 266.125 399.969 L 266.125 399.281 L 266.141 398.750 L 266.172 398.375 L 266.219 398.156 L 266.281 398.094 L 266.328 397.938 L 266.359 397.688 L 266.375 397.344 L 266.375 396.906 L 266.391 396.562 L 266.422 396.312 L 266.469 396.156 L 266.531 396.094 L 266.609 395.750 L 266.703 395.125 L 266.812 394.219 L 266.938 393.031 L 267.219 391.484 L 267.656 389.578 L 268.250 387.312 L 269.000 384.688 L 269.734 382.344 L 270.453 380.281 L 271.156 378.500 L 271.844 377.000 L 272.359 375.844 L 272.703 375.031 L 272.875 374.562 L 272.875 374.438 L 273.141 373.844 L 273.672 372.781 L 274.469 371.250 L 275.531 369.250 L 276.594 367.328 L 277.656 365.484 L 278.719 363.719 L 279.781 362.031 L 281.281 359.797 L 283.219 357.016 L 285.594 353.688 L 288.406 349.812 L 291.047 346.281 L 293.516 343.094 L 295.812 340.250 L 297.938 337.750 L 299.578 335.797 L 300.734 334.391 L 301.406 333.531 L 301.594 333.219 L 302.031 332.625 L 302.719 331.750 L 303.656 330.594 L 304.844 329.156 L 305.938 327.859 L 306.938 326.703 L 307.844 325.688 L 308.656 324.812 L 310.156 323.047 L 312.344 320.391 L 315.219 316.844 L 318.781 312.406 L 322.062 308.250 L 325.062 304.375 L 327.781 300.781 L 330.219 297.469 L 332.094 294.891 L 333.406 293.047 L 334.156 291.938 L 334.344 291.562 L 334.578 291.172 L 334.859 290.766 L 335.188 290.344 L 335.562 289.906 L 336.250 288.891 L 337.250 287.297 L 338.562 285.125 L 340.188 282.375 L 341.469 280.234 L 342.406 278.703 L 343.000 277.781 L 343.250 277.469 L 343.766 276.594 L 344.547 275.156 L 345.594 273.156 L 346.906 270.594 L 347.891 268.641 L 348.547 267.297 L 348.875 266.562 L 348.875 266.438 L 348.984 266.125 L 349.203 265.625 L 349.531 264.938 L 349.969 264.062 L 350.297 263.375 L 350.516 262.875 L 350.625 262.562 L 350.625 262.438 L 350.750 262.062 L 351.000 261.438 L 351.375 260.562 L 351.875 259.438 L 352.281 258.469 L 352.594 257.656 L 352.812 257.000 L 352.938 256.500 L 353.062 256.078 L 353.188 255.734 L 353.312 255.469 L 353.438 255.281 L 353.781 254.266 L 354.344 252.422 L 355.125 249.750 L 356.125 246.250 L 356.891 243.453 L 357.422 241.359 L 357.719 239.969 L 357.781 239.281 L 357.859 238.688 L 357.953 238.188 L 358.062 237.781 L 358.188 237.469 L 358.297 237.078 L 358.391 236.609 L 358.469 236.062 L 358.531 235.438 L 358.594 234.953 L 358.656 234.609 L 358.719 234.406 L 358.781 234.344 L 358.828 234.188 L 358.859 233.938 L 358.875 233.594 L 358.875 233.156 L 358.945 232.773 L 359.086 232.445 L 359.297 232.172 L 359.578 231.953 L 359.875 231.875 L 360.188 231.938 L 360.516 232.141 L 360.859 232.484 L 361.305 232.992 L 361.852 233.664 L 362.500 234.500 L 363.250 235.500 L 364.203 236.828 L 365.359 238.484 L 366.719 240.469 L 368.281 242.781 L 369.734 244.984 L 371.078 247.078 L 372.312 249.062 L 373.438 250.938 L 374.641 253.047 L 375.922 255.391 L 377.281 257.969 L 378.719 260.781 L 379.797 262.922 L 380.516 264.391 L 380.875 265.188 L 380.875 265.312 L 380.922 265.484 L 381.016 265.703 L 381.156 265.969 L 381.344 266.281 L 381.484 266.547 L 381.578 266.766 L 381.625 266.938 L 381.625 267.062 L 381.750 267.438 L 382.000 268.062 L 382.375 268.938 L 382.875 270.062 L 383.344 271.203 L 383.781 272.359 L 384.188 273.531 L 384.562 274.719 L 384.875 275.656 L 385.125 276.344 L 385.312 276.781 L 385.438 276.969 L 385.562 277.250 L 385.688 277.625 L 385.812 278.094 L 385.938 278.656 L 386.062 279.125 L 386.188 279.500 L 386.312 279.781 L 386.438 279.969 L 386.531 280.156 L 386.594 280.344 L 386.625 280.531 L 386.625 280.719 L 386.703 281.062 L 386.859 281.562 L 387.094 282.219 L 387.406 283.031 L 387.656 283.750 L 387.844 284.375 L 387.969 284.906 L 388.031 285.344 L 388.109 285.734 L 388.203 286.078 L 388.312 286.375 L 388.438 286.625 L 388.562 286.984 L 388.688 287.453 L 388.812 288.031 L 388.938 288.719 L 389.078 289.359 L 389.234 289.953 L 389.406 290.500 L 389.594 291.000 L 389.734 291.438 L 389.828 291.812 L 389.875 292.125 L 389.875 292.375 L 389.922 292.688 L 390.016 293.062 L 390.156 293.500 L 390.344 294.000 L 390.484 294.438 L 390.578 294.812 L 390.625 295.125 L 390.625 295.375 L 390.641 295.578 L 390.672 295.734 L 390.719 295.844 L 390.781 295.906 L 390.844 296.094 L 390.906 296.406 L 390.969 296.844 L 391.031 297.406 L 391.109 297.922 L 391.203 298.391 L 391.312 298.812 L 391.438 299.188 L 391.531 299.547 L 391.594 299.891 L 391.625 300.219 L 391.625 300.531 L 391.641 300.781 L 391.672 300.969 L 391.719 301.094 L 391.781 301.156 L 391.828 301.312 L 391.859 301.562 L 391.875 301.906 L 391.875 302.344 L 391.891 302.688 L 391.922 302.938 L 391.969 303.094 L 392.031 303.156 L 392.078 303.297 L 392.109 303.516 L 392.125 303.812 L 392.125 304.188 L 392.156 304.578 L 392.219 304.984 L 392.312 305.406 L 392.438 305.844 L 392.562 306.562 L 392.688 307.562 L 392.812 308.844 L 392.938 310.406 L 393.047 311.594 L 393.141 312.406 L 393.219 312.844 L 393.281 312.906 L 393.344 313.531 L 393.406 314.719 L 393.469 316.469 L 393.531 318.781 L 393.594 320.531 L 393.656 321.719 L 393.719 322.344 L 393.781 322.406 L 393.828 322.891 L 393.859 323.797 L 393.875 325.125 L 393.875 326.875 L 393.859 328.203 L 393.828 329.109 L 393.781 329.594 L 393.719 329.656 L 393.672 330.047 L 393.641 330.766 L 393.625 331.812 L 393.625 333.188 L 393.609 334.234 L 393.578 334.953 L 393.531 335.344 L 393.469 335.406 L 393.422 335.609 L 393.391 335.953 L 393.375 336.438 L 393.375 337.062 L 393.359 337.547 L 393.328 337.891 L 393.281 338.094 L 393.219 338.156 L 393.141 338.656 L 393.047 339.594 L 392.938 340.969 L 392.812 342.781 L 392.703 344.156 L 392.609 345.094 L 392.531 345.594 L 392.469 345.656 L 392.375 346.094 L 392.250 346.906 L 392.094 348.094 L 391.906 349.656 L 391.719 351.000 L 391.531 352.125 L 391.344 353.031 L 391.156 353.719 L 391.000 354.391 L 390.875 355.047 L 390.781 355.688 L 390.719 356.312 L 390.641 356.844 L 390.547 357.281 L 390.438 357.625 L 390.312 357.875 L 390.203 358.203 L 390.109 358.609 L 390.031 359.094 L 389.969 359.656 L 389.859 360.266 L 389.703 360.922 L 389.500 361.625 L 389.250 362.375 L 389.047 363.062 L 388.891 363.688 L 388.781 364.250 L 388.719 364.750 L 388.609 365.281 L 388.453 365.844 L 388.250 366.438 L 388.000 367.062 L 387.812 367.578 L 387.688 367.984 L 387.625 368.281 L 387.625 368.469 L 387.578 368.719 L 387.484 369.031 L 387.344 369.406 L 387.156 369.844 L 387.016 370.219 L 386.922 370.531 L 386.875 370.781 L 386.875 370.969 L 386.797 371.344 L 386.641 371.906 L 386.406 372.656 L 386.094 373.594 L 385.828 374.344 L 385.609 374.906 L 385.438 375.281 L 385.312 375.469 L 385.188 375.734 L 385.062 376.078 L 384.938 376.500 L 384.812 377.000 L 384.688 377.422 L 384.562 377.766 L 384.438 378.031 L 384.312 378.219 L 384.141 378.594 L 383.922 379.156 L 383.656 379.906 L 383.344 380.844 L 383.062 381.625 L 382.812 382.250 L 382.594 382.719 L 382.406 383.031 L 382.250 383.344 L 382.125 383.656 L 382.031 383.969 L 381.969 384.281 L 381.734 384.891 L 381.328 385.797 L 380.750 387.000 L 380.000 388.500 L 379.438 389.656 L 379.062 390.469 L 378.875 390.938 L 378.875 391.062 L 378.688 391.531 L 378.312 392.344 L 377.750 393.500 L 377.000 395.000 L 376.000 396.875 L 374.750 399.125 L 373.250 401.750 L 371.500 404.750 L 369.641 407.766 L 367.672 410.797 L 365.594 413.844 L 363.406 416.906 L 361.125 419.969 L 358.750 423.031 L 356.281 426.094 L 353.719 429.156 L 350.836 432.398 L 347.633 435.820 L 344.109 439.422 L 340.266 443.203 L 336.852 446.477 L 333.867 449.242 L 331.312 451.500 L 329.188 453.250 L 327.047 454.969 L 324.891 456.656 L 322.719 458.312 L 320.531 459.938 L 318.312 461.547 L 316.062 463.141 L 313.781 464.719 L 311.469 466.281 L 309.656 467.484 L 308.344 468.328 L 307.531 468.812 L 307.219 468.938 L 306.859 469.125 L 306.453 469.375 L 306.000 469.688 L 305.500 470.062 L 304.891 470.469 L 304.172 470.906 L 303.344 471.375 L 302.406 471.875 L 301.703 472.250 L 301.234 472.500 L 301.000 472.625 L 301.000 472.625 L 300.922 472.625 L 300.766 472.625 Z" fill="#e9e9e9" fill-rule="evenodd" stroke="none" shape-rendering="geometricPrecision"/>
</svg>
